# xmcd
#
# Track frame offsets:
# 150
# 15608
# 31800
# 44474
# 59237
# 75173
# 88309
# 106842
# 119958
# 141015
# 157274
# 172707
# 190737
#
# Disc length: 2726 seconds
#
#
# Revision: 0
# Processed by: cddbd v1.5.2PL0 Copyright (c) Steve Scherf et al.
# Submitted via: FreeRIP 2.96 
#
DISCID=ab0aa40d
DTITLE=Erik and Caio - Nota 10
DYEAR=2009
DGENRE=Country
TTITLE0=O Guarda Nota 10
TTITLE1=Batom Vermelho
TTITLE2=Carinha de Anjo
TTITLE3=Carona só para Mulher
TTITLE4=Mulher Macnão
TTITLE5=Puxa o Fole
TTITLE6=Menina
TTITLE7=Acho pouco para Voce
TTITLE8=Cantiga Estradeira
TTITLE9=30 Noites de Saudade
TTITLE10=Chama Ela ai
TTITLE11=Na Mesa de um Bar
TTITLE12=Sonho Impossivel
EXTD=
EXTT0=
EXTT1=
EXTT2=
EXTT3=
EXTT4=
EXTT5=
EXTT6=
EXTT7=
EXTT8=
EXTT9=
EXTT10=
EXTT11=
EXTT12=
PLAYORDER=
